HIERARCHY
ROOT Hips
{
	OFFSET -3.958830 18.904000 13.208200
	CHANNELS 6 Xposition Yposition Zposition Zrotation Yrotation Xrotation 
	JOINT LHipJoint
	{
		OFFSET 0.000000 0.000000 0.000000
		CHANNELS 3 Zrotation Yrotation Xrotation
		JOINT LeftUpLeg
		{
			OFFSET 1.800000 -1.400000 0.085000
			CHANNELS 3 Zrotation Yrotation Xrotation
			JOINT LeftLeg
			{
				OFFSET 2.215000 -6.000000 0.000000
				CHANNELS 3 Zrotation Yrotation Xrotation
				JOINT LeftFoot
				{
					OFFSET 2.500000 -6.900000 0.000000
					CHANNELS 3 Zrotation Yrotation Xrotation
					JOINT LeftToeBase
					{
						OFFSET 0.200000 -0.500000 1.950000
						CHANNELS 3 Zrotation Yrotation Xrotation
						End Site
						{
							OFFSET 0.000000 0.000000 0.000000
						}
					}
				}
			}
		}
	}
	JOINT RHipJoint
	{
		OFFSET 0.000000 0.000000 0.000000
		CHANNELS 3 Zrotation Yrotation Xrotation
		JOINT RightUpLeg
		{
			OFFSET -1.800000 -1.400000 0.085000
			CHANNELS 3 Zrotation Yrotation Xrotation
			JOINT RightLeg
			{
				OFFSET -2.215000 -6.000000 0.000000
				CHANNELS 3 Zrotation Yrotation Xrotation
				JOINT RightFoot
				{
					OFFSET -2.500000 -6.900000 0.000000
					CHANNELS 3 Zrotation Yrotation Xrotation
					JOINT RightToeBase
					{
						OFFSET -0.200000 -0.500000 1.950000
						CHANNELS 3 Zrotation Yrotation Xrotation
						End Site
						{
							OFFSET 0.000000 0.000000 0.000000
						}
					}
				}
			}
		}
	}
	JOINT LowerBack
	{
		OFFSET 0.000000 0.000000 0.000000
		CHANNELS 3 Zrotation Yrotation Xrotation
		JOINT Spine
		{
			OFFSET -0.087000 1.940000 -0.288900
			CHANNELS 3 Zrotation Yrotation Xrotation
			JOINT Spine1
			{
				OFFSET 0.000000 1.950000 0.060000
				CHANNELS 3 Zrotation Yrotation Xrotation
				JOINT Neck
				{
					OFFSET 0.000000 0.000000 0.000000
					CHANNELS 3 Zrotation Yrotation Xrotation
					JOINT Neck1
					{
						OFFSET 0.000000 1.600000 0.340000
						CHANNELS 3 Zrotation Yrotation Xrotation
						JOINT Head
						{
							OFFSET 0.000000 1.667000 -0.240000
							CHANNELS 3 Zrotation Yrotation Xrotation
							End Site
							{
								OFFSET 0.000000 0.000000 0.000000
							}
						}
					}
				}
				JOINT LeftShoulder
				{
					OFFSET 0.000000 0.000000 0.000000
					CHANNELS 3 Zrotation Yrotation Xrotation
					JOINT LeftArm
					{
						OFFSET 2.700000 1.550000 -0.730000
						CHANNELS 3 Zrotation Yrotation Xrotation
						JOINT LeftForeArm
						{
							OFFSET 5.450000 0.000000 0.000000
							CHANNELS 3 Zrotation Yrotation Xrotation
							JOINT LeftHand
							{
								OFFSET 3.450000 0.000000 0.000000
								CHANNELS 3 Zrotation Yrotation Xrotation
								JOINT LeftHandIndex1
								{
									OFFSET 0.750000 0.000000 0.000000
									CHANNELS 3 Zrotation Yrotation Xrotation
									End Site
									{
										OFFSET 0.000000 0.000000 0.000000
									}
								}
							}
						}
					}
				}
				JOINT RightShoulder
				{
					OFFSET 0.000000 0.000000 0.000000
					CHANNELS 3 Zrotation Yrotation Xrotation
					JOINT RightArm
					{
						OFFSET -2.700000 1.550000 -0.730000
						CHANNELS 3 Zrotation Yrotation Xrotation
						JOINT RightForeArm
						{
							OFFSET -5.450000 0.000000 0.000000
							CHANNELS 3 Zrotation Yrotation Xrotation
							JOINT RightHand
							{
								OFFSET -3.450000 0.000000 0.000000
								CHANNELS 3 Zrotation Yrotation Xrotation
								JOINT RightHandIndex1
								{
									OFFSET -0.750000 0.000000 0.000000
									CHANNELS 3 Zrotation Yrotation Xrotation
									End Site
									{
										OFFSET 0.000000 0.000000 0.000000
									}
								}
							}
						}
					}
				}
			}
		}
	}
}
MOTION
Frames: 6
Frame Time: 0.016667
0.120650 15.434670 -2.405070 1.546916 -12.580186 -2.097167 -15.463078 11.142829 4.127340 -8.625526 -9.790399 -11.544875 -33.329396 22.383858 40.023632 1.561460 11.466817 0.950316 0.718710 0.227420 0.832080 18.545826 -7.264351 4.985252 -4.070239 11.667251 -51.388374 27.839145 -26.027318 55.176561 -2.284470 -11.533172 0.704418 0.082940 -0.067090 0.347690 -3.784385 -3.690420 -9.372352 18.388268 -10.158546 32.285227 -1.710981 -6.086085 6.023712 0.978175 -7.124808 -9.111190 -16.642580 4.508538 33.925673 -16.550210 8.249290 -11.878660 -6.866717 4.663305 0.848188 -8.764806 4.733503 -0.295682 -130.481420 -54.443594 86.871220 -3.578040 3.817258 0.626860 0.087010 0.134720 0.177090 4.942953 -1.535133 5.939747 40.760186 -11.816175 -12.467980 102.262960 63.589141 56.215445 2.180890 -1.890731 -0.060410 -0.005430 -0.300400 -0.403350 
0.114680 15.431000 -2.418130 1.331591 -15.460598 -1.517101 -15.469463 11.071951 4.137023 -7.723372 -9.607296 -12.847378 -35.478125 23.060635 38.831578 1.653890 11.479403 0.963883 0.717070 0.239280 0.816720 18.550161 -7.197987 5.053960 -2.478058 13.175032 -51.776084 26.631235 -25.115687 56.035855 -2.279601 -11.443288 0.745875 0.064900 -0.078480 0.344930 -3.841123 -3.605872 -9.378804 18.113930 -10.396527 32.749487 -2.694620 -6.147532 5.673669 1.299206 -7.802850 -9.842220 -17.599916 6.325792 32.592716 -16.828870 9.260750 -11.686640 -7.001644 3.758586 1.625266 -9.824532 6.320092 -1.100124 -120.667090 -51.491373 70.732328 -3.527726 3.864806 0.609660 0.070700 0.150380 0.200470 4.552143 -0.108825 6.293647 42.601854 -11.055322 -13.047613 106.728132 62.769174 59.335549 2.210611 -1.906873 -0.035150 -0.027660 -0.330620 -0.376170 
0.106090 15.491840 -2.427710 1.385326 -18.654839 -1.097287 -15.488113 11.159591 4.103151 -7.103932 -8.781678 -13.280379 -36.767825 22.865936 36.574783 1.731037 11.141135 1.089411 0.724670 0.280310 0.772800 18.522806 -7.198136 5.067512 -0.977562 14.277105 -50.814341 25.283885 -23.406419 55.641754 -2.187873 -11.016653 0.893419 0.041590 -0.090260 0.330900 -3.823208 -3.672206 -9.341424 16.895192 -10.232598 32.983192 -2.958989 -6.204185 5.301914 1.480138 -8.692994 -10.797429 -19.382220 8.506649 31.570141 -15.995030 9.877950 -10.787810 -8.064196 2.084262 2.783413 -12.821041 8.367844 -2.677077 -110.075085 -48.622072 55.743551 -3.446813 3.886973 0.560510 0.038600 0.166890 0.249010 5.475673 2.362492 6.715616 44.205300 -10.072282 -14.128441 109.950122 63.374892 62.553806 2.333242 -1.832437 0.023370 -0.060420 -0.383440 -0.311550 
0.103040 15.582630 -2.407930 1.025426 -20.859345 -0.434046 -15.484150 11.310127 4.012416 -6.965152 -7.821055 -13.006037 -36.166055 21.635326 34.243878 1.729025 10.586749 1.281500 0.682890 0.264180 0.688260 18.507784 -7.271249 5.037127 -0.270245 14.520383 -49.486600 24.970495 -22.335763 54.400475 -2.078374 -10.648445 1.030986 -0.008350 -0.047820 0.338680 -3.833085 -3.749320 -9.236506 16.541208 -10.598394 32.248543 -3.392355 -6.767709 4.494544 1.739664 -9.304659 -11.438469 -20.481951 10.787478 30.120616 -15.201510 11.110850 -8.566190 -8.548791 1.446809 3.792400 -17.788988 10.464780 -4.339243 -99.385177 -46.463371 43.995257 -3.431784 3.899405 0.479860 0.058380 0.144790 0.286240 5.659789 3.391006 6.731486 45.933120 -8.533040 -14.301022 112.155639 63.583897 65.083181 2.398827 -1.814424 0.073920 -0.096070 -0.391700 -0.243850 
0.084210 15.710370 -2.378810 1.018969 -22.583910 0.432538 -15.443896 11.385506 3.899941 -7.201832 -6.800678 -12.785837 -35.220622 20.282506 31.823601 1.665140 10.015022 1.499361 0.603150 0.205660 0.571510 18.533063 -7.405572 5.023627 -0.335360 14.575512 -48.757013 24.396626 -21.203200 53.234770 -1.936678 -10.298747 1.165570 -0.052210 0.053080 0.329540 -3.957820 -3.590065 -9.095968 16.561319 -10.969955 30.729232 -4.745557 -7.376304 3.165777 1.818909 -9.767748 -11.658355 -20.933597 12.816746 27.724984 -14.023400 12.380230 -5.831490 -9.256402 1.687190 4.348185 -21.651947 13.036013 -5.787864 -90.748046 -44.095121 35.384284 -3.458019 3.876989 0.407730 0.111830 0.086160 0.327200 6.356941 3.266369 6.554321 49.657342 -7.523067 -14.294016 112.742708 63.794272 66.200453 2.435106 -1.799645 0.066920 -0.087510 -0.372230 -0.183750 
0.065150 15.864870 -2.349600 0.992719 -23.818872 1.404295 -15.401132 11.455805 3.773074 -7.767656 -6.025515 -12.833246 -32.761772 18.955077 30.803053 1.560100 9.513369 1.686588 0.513920 0.116720 0.458820 18.563152 -7.520092 5.030208 -1.617164 14.294697 -48.639842 25.045249 -20.691720 51.533024 -1.810577 -10.031093 1.271559 -0.102360 0.159870 0.314190 -4.091066 -3.455705 -8.948523 17.020208 -11.225548 28.522254 -5.984572 -7.840195 2.220054 1.824236 -10.304754 -11.925612 -21.989787 14.649300 26.020144 -12.383490 12.932050 -3.157930 -9.605768 1.963833 4.694852 -26.738499 14.264125 -7.374599 -80.494970 -41.458783 27.010805 -3.492008 3.805175 0.360020 0.159780 0.016640 0.346720 6.803723 3.144751 6.626463 54.300460 -7.061037 -14.977071 114.230529 64.615217 68.774478 2.464489 -1.688660 0.041650 -0.058260 -0.323050 -0.141870 
